<?xml version="1.0" encoding="UTF-8" standalone="no"?>
<svg width="32px" height="32px" viewBox="0 0 32 32" version="1.1" xmlns="http://www.w3.org/2000/svg" xmlns:xlink="http://www.w3.org/1999/xlink">
    <!-- Generator: Sketch 47 (45396) - http://www.bohemiancoding.com/sketch -->
    <title>32</title>
    <desc>Created with Sketch.</desc>
    <defs></defs>
    <g id="logo-final" stroke="none" stroke-width="1" fill="none" fill-rule="evenodd">
        <g id="32" transform="translate(1.000000, 1.000000)" stroke-width="0.75" stroke="#BB1014">
            <g id="outermost">
                <path d="M10.9821617,30 C19.0928228,29.8006104 25.606453,23.1632818 25.606453,15.0046134 C25.606453,6.72034213 18.8907242,0.00461337649 10.606453,0.00461337649 C6.46439301,0.00461337649 2.71445434,1.68348424 2.84217094e-14,4.39786293" id="Oval-2" transform="translate(12.803226, 15.002307) rotate(180.000000) translate(-12.803226, -15.002307) "></path>
            </g>
            <g id="inside" transform="translate(3.750000, 0.000000)">
                <path d="M26.25,15 C26.25,6.8410414 19.7359065,0.20353084 11.6248434,0.0045921278" id="Oval"></path>
                <path d="M23.25,15 C23.25,8.372583 17.877417,3 11.25,3" id="Oval"></path>
                <path d="M20.25,15 C20.25,10.0294373 16.2205627,6 11.25,6" id="Oval"></path>
                <path d="M16.875,14.625 C16.875,11.5183983 14.3566017,9 11.25,9" id="Oval"></path>
                <path d="M0.644989014,25.6049995 L11.25,15" id="Line" stroke-linecap="square"></path>
            </g>
        </g>
    </g>
</svg>